<svg width="200" height="250" viewBox="0 0 200 250" fill="none" xmlns="http://www.w3.org/2000/svg">
<path fill-rule="evenodd" clip-rule="evenodd" d="M77.2481 187.817L123.294 158.134C132.044 153.635 140.14 147.525 147.122 139.828C178.281 105.477 175.448 52.5223 140.795 21.55C106.143 -9.42223 52.7929 -6.68354 21.6348 27.6671C-9.52327 62.0177 -6.6905 114.972 27.962 145.945C35.8336 152.98 44.67 158.276 53.992 161.857C34.3704 177.618 29.5226 205.87 43.5739 227.348C57.0846 248 83.4657 255.354 105.464 245.77C107.097 245.304 108.685 244.575 110.165 243.571L111.924 242.378C112.165 242.228 112.405 242.076 112.644 241.922L166.519 205.346C173.465 201.06 182.62 203.063 187.095 209.903C189.909 214.204 190.21 219.406 188.361 223.808C200.118 214.416 203.416 198.017 196.193 184.865C187.948 169.85 169.002 164.313 153.876 172.498C153.255 172.834 152.632 173.182 152.006 173.542C151.233 173.905 150.479 174.332 149.751 174.826L148.475 175.691C148.075 175.948 147.674 176.209 147.271 176.475L93.3957 213.051C86.4502 217.338 77.2949 215.334 72.8204 208.495C68.2908 201.571 70.2732 192.313 77.2481 187.817ZM115.198 46.8248C135.091 64.733 136.717 95.3514 118.831 115.213C100.944 135.074 70.3188 136.658 50.4265 118.75C30.5343 100.842 28.9082 70.2232 46.7944 50.3617C64.6807 30.5001 95.3062 28.9166 115.198 46.8248Z" fill="#EA5230"/>
</svg>
